# xmcd
#
# Track frame offsets: 
#        150
#        19385
#        36786
#        52096
#        71436
#        87915
#        107142
#        127000
#        143720
#        160117
#        180280
#
# Disc length: 2687 seconds
#
# Revision: 0
# Processed by: cddbd v1.5.2PL0 Copyright (c) Steve Scherf et al.
# Submitted via: ExactAudioCopy v0.95a5
#
DISCID=920a7d0b
DTITLE=Марина Хлебникова - Фотоальбом
DYEAR=1999
DGENRE=Other
TTITLE0=Стаканчик брэнди
TTITLE1=Полоска взлётная
TTITLE2=Не покидай меня
TTITLE3=Найди меня
TTITLE4=Проводница
TTITLE5=Солнце
TTITLE6=Ночь перед Рождеством
TTITLE7=Деньги
TTITLE8=Белые лодки
TTITLE9=Случайная любовь
TTITLE10=Дожди (ремикс)
EXTD=
EXTT0=
EXTT1=
EXTT2=
EXTT3=
EXTT4=
EXTT5=
EXTT6=
EXTT7=
EXTT8=
EXTT9=
EXTT10=
PLAYORDER=
